HIERARCHY
ROOT SpineBase
{
  OFFSET 0.000000 0.000000 0.000000
  CHANNELS 6 Xposition Yposition Zposition Zrotation Xrotation Yrotation
  JOINT SpineMid
  {
    OFFSET 0.000000 30.311116 0.000000
    CHANNELS 3 Zrotation Xrotation Yrotation
    JOINT SpineShoulder
    {
      OFFSET 0.071606 22.485329 -0.632615
      CHANNELS 3 Zrotation Xrotation Yrotation
      JOINT Neck
      {
        OFFSET 0.024846 7.420128 -0.504020
        CHANNELS 3 Zrotation Xrotation Yrotation
        JOINT Head
        {
          OFFSET -0.763371 14.792850 -0.372319
          CHANNELS 3 Zrotation Xrotation Yrotation
          End Site
          {
            OFFSET 0 0 0
          }
        }
      }
      JOINT ShoulderLeft
      {
        OFFSET -17.743622 -3.523213 0.132539
        CHANNELS 3 Zrotation Xrotation Yrotation
        JOINT ElbowLeft
        {
          OFFSET -5.665557 -25.362822 -0.219761
          CHANNELS 3 Zrotation Xrotation Yrotation
          JOINT WristLeft
          {
            OFFSET 0.237720 -20.868393 -6.036546
            CHANNELS 3 Zrotation Xrotation Yrotation
            JOINT HandLeft
            {
              OFFSET -1.413236 -6.030098 -1.963575
              CHANNELS 3 Zrotation Xrotation Yrotation
              JOINT HandTipLeft
              {
                OFFSET -1.702016 -5.968124 -0.773216
                CHANNELS 3 Zrotation Xrotation Yrotation
                End Site
                {
                  OFFSET 0 0 0
                }
              }
              JOINT ThumbLeft
              {
                OFFSET 2.265153 -0.519667 0.421591
                CHANNELS 3 Zrotation Xrotation Yrotation
                End Site
                {
                  OFFSET 0 0 0
                }
              }
            }
          }
        }
      }
      JOINT ShoulderRight
      {
        OFFSET 18.751195 -4.460183 -2.157754
        CHANNELS 3 Zrotation Xrotation Yrotation
        JOINT ElbowRight
        {
          OFFSET 20.698467 -0.552712 -10.449567
          CHANNELS 3 Zrotation Xrotation Yrotation
          JOINT WristRight
          {
            OFFSET -1.892331 23.664582 -5.373721
            CHANNELS 3 Zrotation Xrotation Yrotation
            JOINT HandRight
            {
              OFFSET -0.794747 9.088667 -1.835160
              CHANNELS 3 Zrotation Xrotation Yrotation
              JOINT HandTipRight
              {
                OFFSET -1.434676 6.827091 4.838128
                CHANNELS 3 Zrotation Xrotation Yrotation
                End Site
                {
                  OFFSET 0 0 0
                }
              }
              JOINT ThumbRight
              {
                OFFSET 0.871369 6.294101 4.446098
                CHANNELS 3 Zrotation Xrotation Yrotation
                End Site
                {
                  OFFSET 0 0 0
                }
              }
            }
          }
        }
      }
    }
  }
  JOINT HipLeft
  {
    OFFSET -7.843944 0.214744 -2.989082
    CHANNELS 3 Zrotation Xrotation Yrotation
    JOINT KneeLeft
    {
      OFFSET -1.890076 -34.888589 7.395868
      CHANNELS 3 Zrotation Xrotation Yrotation
      JOINT AnkleLeft
      {
        OFFSET -0.454730 -33.288990 5.026372
        CHANNELS 3 Zrotation Xrotation Yrotation
        JOINT FootLeft
        {
          OFFSET -0.973150 -4.121033 -11.000438
          CHANNELS 3 Zrotation Xrotation Yrotation
          End Site
          {
            OFFSET 0 0 0
          }
        }
      }
    }
  }
  JOINT HipRight
  {
    OFFSET 7.621118 0.592594 -3.636291
    CHANNELS 3 Zrotation Xrotation Yrotation
    JOINT KneeRight
    {
      OFFSET 2.061683 -34.704016 5.764588
      CHANNELS 3 Zrotation Xrotation Yrotation
      JOINT AnkleRight
      {
        OFFSET 0.748841 -34.163357 4.667948
        CHANNELS 3 Zrotation Xrotation Yrotation
        JOINT FootRight
        {
          OFFSET 6.088417 -8.421755 -1.771776
          CHANNELS 3 Zrotation Xrotation Yrotation
          End Site
          {
            OFFSET 0 0 0
          }
        }
      }
    }
  }
}
MOTION
Frames: 9
Frame Time: 0.033333
14.470997 77.439626 389.732886 -0.000000 0.000000 2.396415 0.000000 -0.000000 -2.396415 -0.000000 0.000000 0.000000 -0.000000 0.000000 0.000000 0.000000 0.000000 0.000000 -0.000000 0.000000 0.000000 -0.000000 0.000000 0.000000 -0.000000 0.000000 0.000000 -0.000000 0.000000 0.000000 0.000000 0.000000 0.000000 0.000000 0.000000 0.000000 -0.000000 0.000000 0.000000 -0.000000 0.000000 0.000000 -0.000000 0.000000 0.000000 -0.000000 0.000000 0.000000 0.000000 0.000000 0.000000 0.000000 0.000000 0.000000 0.000000 -0.000000 -2.396415 -0.000000 0.000000 0.000000 -0.000000 0.000000 0.000000 0.000000 0.000000 0.000000 0.000000 -0.000000 -2.396415 -0.000000 0.000000 0.000000 -0.000000 0.000000 0.000000 0.000000 0.000000 0.000000
14.501142 77.459822 389.703916 -0.022577 0.055467 2.218848 0.020413 -0.056300 -2.218827 -0.000000 0.000000 0.000000 -0.000000 0.000000 0.000000 0.000000 0.000000 0.000000 -0.000000 0.000000 0.000000 -0.829287 -0.373236 0.233176 3.350054 -7.144407 0.870185 -6.068653 12.640273 -1.120844 0.000000 0.000000 0.000000 0.000000 0.000000 0.000000 -0.000000 0.000000 0.000000 -0.000000 0.000000 0.000000 1.469417 -1.112726 0.213026 -3.717399 1.695202 1.588431 0.000000 0.000000 0.000000 0.000000 0.000000 0.000000 0.020413 -0.056300 -2.218827 -0.000000 0.000000 0.000000 -0.398464 0.920274 0.831009 0.000000 0.000000 0.000000 0.020413 -0.056300 -2.218827 -0.000000 0.000000 0.000000 -1.311549 3.318369 2.718999 0.000000 0.000000 0.000000
14.529887 77.477340 389.680452 -0.041764 0.107678 2.058436 0.037870 -0.109109 -2.058360 -0.000000 0.000000 0.000000 -0.000000 0.000000 0.000000 0.000000 0.000000 0.000000 -0.000000 0.000000 0.000000 -1.516305 -0.867395 0.418261 6.059488 -12.527981 1.756597 -11.315444 22.938640 -0.784702 0.000000 0.000000 0.000000 0.000000 0.000000 0.000000 0.008413 0.027780 0.874854 -0.621482 0.630763 -0.961273 3.345302 -2.679461 0.540475 -6.684098 2.976435 2.871569 0.000000 0.000000 0.000000 0.000000 0.000000 0.000000 0.037870 -0.109109 -2.058360 -0.000000 0.000000 0.000000 -0.826536 0.966737 1.937894 0.000000 0.000000 0.000000 0.037870 -0.109109 -2.058360 -0.000000 0.000000 0.000000 -2.450953 5.724766 4.801332 0.000000 0.000000 0.000000
14.557232 77.492177 389.662495 -0.057555 0.156622 1.915260 0.052289 -0.158458 -1.915109 -0.000000 0.000000 0.000000 -0.000000 0.000000 0.000000 0.000000 0.000000 0.000000 -0.000000 0.000000 0.000000 -2.061365 -1.481508 0.555003 8.046883 -16.092101 2.471375 -15.600050 30.319723 0.340739 0.000000 0.000000 0.000000 0.000000 0.000000 0.000000 -0.182911 -0.062208 1.213345 -0.670920 0.968910 -1.333319 4.634245 -3.658417 0.792912 -8.949465 3.890731 3.823210 0.000000 0.000000 0.000000 0.000000 0.000000 0.000000 0.052289 -0.158458 -1.915109 -0.000000 0.000000 0.000000 -1.267960 0.075066 3.352275 0.000000 0.000000 0.000000 0.052289 -0.158458 -1.915109 -0.000000 0.000000 0.000000 -3.304381 7.204031 6.159362 0.000000 0.000000 0.000000
14.583177 77.504335 389.650044 -0.069943 0.202290 1.789392 0.063593 -0.204375 -1.789155 -0.000000 0.000000 0.000000 -0.000000 0.000000 0.000000 0.000000 0.000000 0.000000 -0.000000 0.000000 0.000000 -2.464899 -2.215139 0.643979 9.260595 -17.905708 2.893388 -18.348506 34.431483 1.456021 0.000000 0.000000 0.000000 0.000000 0.000000 0.000000 -0.505073 -0.223313 1.484850 -0.543528 1.315700 -1.632785 5.669218 -4.403852 1.012584 -10.552984 4.473494 4.428388 0.000000 0.000000 0.000000 0.000000 0.000000 0.000000 0.063593 -0.204375 -1.789155 -0.000000 0.000000 0.000000 -1.687471 -1.863993 5.118716 0.000000 0.000000 0.000000 0.063593 -0.204375 -1.789155 -0.000000 0.000000 0.000000 -3.795831 7.758015 6.731046 0.000000 0.000000 0.000000
14.607722 77.513814 389.643099 -0.078923 0.244671 1.680889 0.071713 -0.246881 -1.680566 -0.000000 0.000000 0.000000 -0.000000 0.000000 0.000000 0.000000 0.000000 0.000000 -0.000000 0.000000 0.000000 -2.727351 -3.068337 0.686559 9.675795 -18.037228 2.968238 -18.724324 34.870555 1.772712 0.000000 0.000000 0.000000 0.000000 0.000000 0.000000 -0.958887 -0.456443 1.687868 -0.238098 1.668714 -1.860368 6.451643 -4.921509 1.188319 -11.523017 4.747386 4.677979 0.000000 0.000000 0.000000 0.000000 0.000000 0.000000 0.071713 -0.246881 -1.680566 -0.000000 0.000000 0.000000 -2.019300 -5.005016 7.297331 0.000000 0.000000 0.000000 0.071713 -0.246881 -1.680566 -0.000000 0.000000 0.000000 -3.887851 7.378152 6.474571 0.000000 0.000000 0.000000
14.638959 77.521170 389.639983 -0.081214 0.295203 1.572585 0.073083 -0.297321 -1.572186 -0.000000 0.000000 0.000000 -0.000000 0.000000 0.000000 0.000000 0.000000 0.000000 -0.000000 0.000000 0.000000 -2.814734 -4.349584 0.665379 8.812500 -15.608937 2.592878 -13.367115 27.770469 0.139842 0.000000 0.000000 0.000000 0.000000 0.000000 0.000000 -2.201342 -1.106385 1.716765 0.633306 2.254039 -1.991550 7.342913 -5.262736 1.387892 -12.159024 4.549513 4.673851 0.000000 0.000000 0.000000 0.000000 0.000000 0.000000 0.073083 -0.297321 -1.572186 -0.000000 0.000000 0.000000 -2.143537 -13.173420 12.304730 0.000000 0.000000 0.000000 0.073083 -0.297321 -1.572186 -0.000000 0.000000 0.000000 -1.505590 4.804982 3.856822 0.000000 0.000000 0.000000
14.664365 77.524917 389.644601 -0.077570 0.329253 1.482502 0.069027 -0.331149 -1.482080 -0.000000 0.000000 0.000000 -0.000000 0.000000 0.000000 0.000000 0.000000 0.000000 -0.000000 0.000000 0.000000 -2.816943 -5.696978 0.618950 7.693713 -11.371236 1.835921 -9.412489 10.895983 1.790628 0.000000 0.000000 0.000000 0.000000 0.000000 0.000000 -2.357612 -1.188049 1.858643 1.420137 2.638059 -1.987940 7.031056 -5.315773 1.344622 -12.476336 4.010451 4.493567 0.000000 0.000000 0.000000 0.000000 0.000000 0.000000 0.069027 -0.331149 -1.482080 -0.000000 0.000000 0.000000 -1.851502 -16.778982 14.122171 0.000000 0.000000 0.000000 0.069027 -0.331149 -1.482080 -0.000000 0.000000 0.000000 -1.894904 2.081050 1.953448 0.000000 0.000000 0.000000
14.684320 77.525583 389.642005 -0.076386 0.367390 1.413487 0.067301 -0.369162 -1.413025 -0.000000 0.000000 0.000000 -0.000000 0.000000 0.000000 0.000000 0.000000 0.000000 -0.000000 0.000000 0.000000 -2.693194 -6.858528 0.549223 5.569059 -5.677079 1.133624 -2.846513 -6.799022 3.911881 0.000000 0.000000 0.000000 0.000000 0.000000 0.000000 -2.609378 -1.320536 2.027247 1.766312 2.775455 -2.148083 7.019808 -5.837263 1.325992 -11.021902 4.160257 3.311128 0.000000 0.000000 0.000000 0.000000 0.000000 0.000000 0.067301 -0.369162 -1.413025 -0.000000 0.000000 0.000000 -1.413603 -10.377954 8.011349 0.000000 0.000000 0.000000 0.067301 -0.369162 -1.413025 -0.000000 0.000000 0.000000 -2.703224 4.385695 3.877921 0.000000 0.000000 0.000000
